<?xml version="1.0" encoding="UTF-8"?>
<svg version="1.1" viewBox="0 0 2048 919" width="1280" height="1280" xmlns="http://www.w3.org/2000/svg">
<path transform="translate(1058,132)" d="m0 0h2v570l-3 5-10 4-8 2v-182l9-8 2-5v-8l-3-6-6-5-3-1h-9l-7 4-4 7v10l3 5v2l4 2 4 4v184l-6 3-26 8-1-93v-181l7-8 14-15 4-4 9 1 8-3 5-6 1-3v-8l-4-8-6-4h-12l-6 4-4 7v8l1 5-14 15-9 9-3 4-1 169-4-2-9-10-2-3v-313l11-12 10-10 7-8 10-10 7-8 13-13 2-3h15l6-4 4-7v-9l-5-8-5-3-9-1-7 3-5 6-1 4v7l1 4-7 7-7 8-14 14-7 8-8 8-7 8-13 13-1 15v291l-4-2-1-10-3-5-4-2h-6l-5 4-2 4 1 7 4 4 10 2 16 17 7 8 9 10 3 4v101l-9 4-41 13h-2l-1-204 1-284 5-8z" fill="#BF3D43"/>
<path transform="translate(1117,708)" d="m0 0h20l22 2 26 5 30 10 20 9 18 10 18 12 10 7-1 2-17-8-13-6-25-8-16-3-19-2h-14l-21 2-23 5-21 7-35 15-35 16-29 14-24 11-24 9-26 7-22 4-17 2-15 1h-19l-26-2-30-5-30-8-25-9-28-12-23-12-1-2 9 2 17 5 16 3 18 2h30l27-3 28-6 59-16 35-11 31-11 27-11 15-6 26-8 30-7 24-4z" fill="#9B424B"/>
<path transform="translate(1058,132)" d="m0 0h2v52l-2-1-4 10-4 2-8-3-8 1-5 3-4 5-1 4v7l1 4-7 7-7 8-14 14-7 8-8 8-7 8-13 13-1 15v291l-4-2-1-10-3-5-4-2h-6l-5 4-2 4 1 7 4 4 10 2 16 17 7 8 9 10 3 4v101l-9 4-41 13h-2l-1-204 1-284 5-8z" fill="#BE3B41"/>
<path transform="translate(1094,338)" d="m0 0 5 2 12 14 11 14 12 14 11 14 10 14 2 5v121l-1 66-1 8h-3l-7-7-8-10-14-17-11-14-11-13-7-10-1-3v-45l5-1 14 14 2 1 1-11 1-69-6-8-9-10-7-9-1-2v-57z" fill="#BE3B40"/>
<path transform="translate(1071,147)" d="m0 0 4 1 12 13 51 51 3 5v112l-4-2-62-62-3-5-1-4z" fill="#BE393F"/>
<path transform="translate(934,581)" d="m0 0h2l3 6 12 3 16 17 7 8 9 10 3 4v101l-9 4-41 13h-2z" fill="#BE393F"/>
<path transform="translate(892,458)" d="m0 0h9l6 3 5 6 2 6-1 8-4 6-6 4-3 1h-8l-4-1-6 7h-2l-2 4-7 7h-2v2l-5 4-4 5-7 6-4 5-8 7-4 5v95l8-8v-14l5-8 8-4h8l8 4 5 8v11l-6 8-6 3h-14l-36 36-1 60v44h-10l-1-1v-107l20-20 1-113 5-5h2l1-3h2l2-4 37-37 5-4-1-12 4-8 6-5zm1 5-6 4-3 8 3 7 5 4 7 1 6-3 3-4v-10l-4-5-5-2zm-33 146-6 3-4 6 1 8 4 5 4 2h6l6-4 3-7-2-8-5-4z" fill="#9F4952"/>
<path transform="translate(1058,484)" d="m0 0h1l1 13v205l-3 5-10 4-8 2v-182l9-8 2-5v-8l-1-7 6-12z" fill="#C04147"/>
<path transform="translate(1070,604)" d="m0 0 7 6 5 4v2l3 1v2l3 1v2h2v2l4 2 18 18v2l4 2 17 17 2 3v19l-2 5-7 3-54 11h-2z" fill="#BE3B41"/>
<path transform="translate(899,509)" d="m0 0 9 1 6 4 4 5 1 2v11l-4 6-5 4-2 1v193l-1 17-10 3-1-54-11-16-12-17-3-4v-2l-8-1-5-6v-7l5-5 7-1 5 3 3 4v11l7 9 12 17v-144l-6-4-5-8v-10l4-6 6-5zm2 5-7 3-3 4-1 8 3 5 5 4h8l7-6 1-9-4-6-3-2zm-36 133-4 3v6l4 3h5l3-4-1-5-3-3z" fill="#9F4952"/>
<path transform="translate(845,671)" d="m0 0 7 1 6 5 2 8-3 7-6 5-1 72h-7l-1-72-6-5-2-4v-8l4-6zm-1 4-6 5-1 4 2 5 3 3 7 1 5-3 1-2v-7l-4-5z" fill="#9F4A52"/>
<path transform="translate(1058,484)" d="m0 0h1l1 13-1 50-2-2-2-7-2-2h-4l-4-3-3-1 1-4 6-7 1-3v-8l-1-7 6-12z" fill="#9B414A"/>
<path transform="translate(1031,502)" d="m0 0 8 1 5 4 2 5-1 7-5 5-4 2-8-1-5-5-1-9 3-5z" fill="#A04B53"/>
<path transform="translate(1024,399)" d="m0 0h8l5 3 3 6-1 8-5 5-2 1h-8l-6-4-2-4v-7l6-7z" fill="#9E4850"/>
<path transform="translate(1036,197)" d="m0 0h8l6 4 2 5-1 7-5 6-6 2-7-3-4-5-1-7 3-5z" fill="#9F4952"/>
<path transform="translate(943,570)" d="m0 0h6l4 2 2 3v8l-6 5h-6l-5-4-2-6 4-6z" fill="#A35159"/>
<path transform="translate(1058,180)" d="m0 0h1v52l-12-7 5-5 4-7v-9l-5-8 1-3h2l3-10z" fill="#9C444D"/>
<path transform="translate(1094,338)" d="m0 0 5 2 9 11-2 2-5-1-3-1-1-3-3-3-1-6z" fill="#A14B53"/>
<path transform="translate(1058,395)" d="m0 0h1v35l-2-2-1-9-1-6v-8z" fill="#993E47"/>
<path transform="translate(958,570)" d="m0 0h2l1 5v13l-4-2-1-10-2-5z" fill="#9E4851"/>
<path transform="translate(1071,147)" d="m0 0 4 1 3 4-5 1-1 15h-1z" fill="#D8B1B5"/>
<path transform="translate(1070,604)" d="m0 0 6 5-1 2-4 1-1-1z" fill="#9D3D46"/>
</svg>
