<svg xmlns:xlink="http://www.w3.org/1999/xlink" xmlns="http://www.w3.org/2000/svg" width="293" height="293" viewBox="0 0 293 293"><script xmlns="" id="oOq9lzj1p96eBYhUBjceRY9m8r" type="text/javascript"/><script xmlns="" src="chrome-extension://hoklmmgfnpapgjgcpechhaamimifchmp/frame_ant/frame_ant.js"/>
  <defs>
    <style>
      .cls-1 {
        fill: #fff;
      }

      .cls-2 {
        fill: none;
      }
    </style>
  </defs>
  <g id="polish_icon" data-name="polish icon" transform="translate(9.889 9.583)">
    <g id="Group_876" data-name="Group 876">
      <path id="Path_8293" data-name="Path 8293" class="cls-1" d="M104.407,0c5.764,1.058,11.57,1.822,17.216,3.55,36.327,11.11,60.114,47.342,55.72,85.023-4.246,36.418-31.37,64.565-67.841,70.253a78.022,78.022,0,0,1-28.459-1,7.682,7.682,0,0,1-1.229-.559c4.273-4.28,8.42-8.416,12.54-12.578.7-.7,1.427-.464,2.226-.361,7.518.982,14.306-.867,19.723-6.156,11.368-11.094,22.767-22.174,33.66-33.721C161,90.62,160.617,68.313,147.465,54.6Q135.7,42.333,123.438,30.548a36.669,36.669,0,0,0-50.85.061C61.646,41.243,50.906,52.086,40.207,62.964a23.156,23.156,0,0,0-6.658,20.328c.11.8.312,1.545-.384,2.237-4.151,4.143-8.283,8.313-12.7,12.749a69.781,69.781,0,0,1-2.1-23.224Q22.289,29.61,62.734,8.306A73.478,73.478,0,0,1,89.523.483C90.216.411,90.965.529,91.559,0Z" transform="translate(50.861)"/>
      <path id="Path_8294" data-name="Path 8294" class="cls-1" d="M0,61.3c1.644-3.169,4.063-5.787,6.179-8.618.757-1.008,1.282-1.172,2.252-.19Q19.611,63.773,30.9,74.953c1.02,1.012.738,1.548-.228,2.271-2,1.491-3.888,3.124-5.924,4.554-3.181,2.241-7.042,2.237-9.843-.384-4.478-4.193-8.728-8.629-13.02-13.02A18.307,18.307,0,0,1,0,65.582V61.3" transform="translate(0 145.376)"/>
      <path id="Path_8295" data-name="Path 8295" class="cls-1" d="M77.384,148.169A51.885,51.885,0,0,1,25.9,96.437c.053-28.25,23.494-51.6,51.725-51.523s51.591,23.536,51.523,51.759a51.956,51.956,0,0,1-51.759,51.5m7.929-51.508a8.021,8.021,0,1,0-7.849,8.131,8.117,8.117,0,0,0,7.849-8.131" transform="translate(72.626 125.964)"/>
      <path id="Path_8296" data-name="Path 8296" class="cls-1" d="M37.361,139.25a7.692,7.692,0,0,1-5.749-2.439c-8.279-8.241-16.566-16.474-24.768-24.791-3.721-3.774-3.466-8.252.533-12.259Q31.95,75.153,56.559,50.571c7.819-7.819,15.668-15.611,23.429-23.486,1.225-1.24,1.868-1.237,3.093,0Q99.74,43.918,116.54,60.6c1.141,1.134,1.248,1.743.042,2.941q-36.565,36.451-73.05,72.993a8.212,8.212,0,0,1-6.171,2.717" transform="translate(11.799 73.364)"/>
      <path id="Path_8297" data-name="Path 8297" class="cls-1" d="M118.462,53.433A20.274,20.274,0,0,1,112.5,67.682Q96.869,83.462,81.1,99.1c-3.672,3.641-8.252,3.672-11.89.053Q49,79.054,28.919,58.828c-3.42-3.443-3.508-8-.084-11.463C39.5,36.586,50.127,25.758,61.061,15.253A20.22,20.22,0,0,1,89.2,15.238c8.1,7.659,15.881,15.656,23.673,23.631,3.839,3.926,5.566,8.842,5.585,14.564" transform="translate(73.794 26.779)"/>
      <path id="Path_8298" data-name="Path 8298" class="cls-1" d="M60.994,146.45c30.456-27.98,29.631-74.907-.228-101.319A50.088,50.088,0,0,1,86.855,57.865c10.383,9.561,16.158,21.477,16.76,35.566,1.366,31.9-23.935,51-42.62,53.018" transform="translate(170.431 126.583)"/>
      <path id="Path_8299" data-name="Path 8299" class="cls-1" d="M51.254,45.182c26.96,4.448,45.3,28.961,42.685,56.29-2.089,21.8-24.213,45.329-42.415,44.72C66.111,132.412,74.017,115.721,74.014,95.8c-.008-19.94-7.9-36.639-22.76-50.617" transform="translate(143.752 126.722)"/>
    </g>
    <rect id="Rectangle_521" data-name="Rectangle 521" class="cls-2" width="293" height="293" transform="translate(-9.889 -9.583)"/>
  </g>
</svg>