<svg xmlns:xlink="http://www.w3.org/1999/xlink" xmlns="http://www.w3.org/2000/svg" width="293" height="293" viewBox="0 0 293 293">
  <defs>
    <style>
      .cls-1 {
        fill: #fff;
      }

      .cls-2 {
        fill: none;
      }
    </style>
  </defs>
  <g id="PPF_icon" data-name="PPF icon" transform="translate(5.196 42.288)">
    <path id="Path_8314" data-name="Path 8314" class="cls-1" d="M270.762,514.245c-9.6-8.06-20.268-13.473-32.951-14.382-3.279-.236-6.48-.236-9.443,2.095q-59.976,46.819-120.07,93.48c-8.495,6.637-17.029,13.353-26.037,19.319-1.817,1.225-3.714,2.489-6.045,2.45-8.218-.079-16.476.632-24.654-.474-9.166-1.224-17.621-4.188-24.694-10.312-9.245-7.981-14.223-18.254-15.448-30.344-1.343-13.67,3.319-24.969,14.54-33.03,10.786-7.784,23.271-9.285,36.191-8.376,9.522.672,17.424,4.148,23.627,11.971,9.087,11.379,11.379,23.706,6.243,37.1-6.835,17.858-25.8,24.773-41.446,15.527-12.011-7.112-14.579-22.441-5.413-32.6,4.662-5.176,12.88-6.717,17.74-3.319a17.348,17.348,0,0,0-8.179-.079,15.4,15.4,0,0,0-10.707,12.6c-.83,7.349,1.936,13.078,8.3,16.831,6.835,4.031,13.907,3.793,20.387-.75a20.52,20.52,0,0,0,9.008-20.229c-1.817-14.342-16.357-23.943-30.659-20.584-16.831,3.951-26.788,22.876-20.9,39.668,7.862,22.4,37.258,31.212,56.854,16.634,14.737-10.984,20.585-26.116,18.174-44.33-2.094-16-16.041-35.163-35.085-38.6a75.992,75.992,0,0,0-37.179,2.607A44.367,44.367,0,0,0,11.7,541.151c-10.628,13.038-14.1,27.815-9.838,44.172C6.482,603.1,16.715,616.3,33.941,623.489c11.339,4.781,23.271,5.413,35.361,5.018,15.409-.553,30.857-1.066,46.266.237,9.087.711,17.858,2.687,25.958,7.191a79.451,79.451,0,0,1,10.431,7.269c2.805,2.252,5.531,2.252,7.783.238,9.877-8.89,114.064-102.607,124.495-111.971v-3.319c-4.306-4.82-8.495-9.759-13.473-13.907M60.018,577.7c-.909,1.7-.909,2.174-.356,6.085-4.228-1.462-5.808-4.741-4.069-7.941.909-1.62,2.252-2.529,4.109-1.739,2.173.948.988,2.292.316,3.6" transform="translate(-0.083 -434.646)"/>
    <path id="Path_8315" data-name="Path 8315" class="cls-1" d="M196.687,534.253c.881,4.3-1.825,7.752-6.108,11.047q-57.771,44.467-115.321,89.224c-.668.518-1.4,1.7-2.284.972-.767-.636.059-1.739.3-2.583,6.6-23.244-3.943-48.3-25.148-59.1-10.288-5.239-21.387-6.76-32.836-5.986-.273.015-.549.094-.822.083-.707-.033-1.675.406-2.015-.391-.383-.905.683-1.17,1.237-1.553q7.977-5.53,15.99-11c32.789-22.434,65.669-44.745,98.3-67.415,5.215-3.623,10.34-4.938,16.3-3.967,19.474,3.169,35.164,12.513,46.258,28.984,4.1,6.093,6.1,13,6.156,21.679" transform="translate(36.182 -483.281)"/>
    <rect id="Rectangle_521" data-name="Rectangle 521" class="cls-2" width="293" height="293" transform="translate(-5.196 -42.288)"/>
  </g>
</svg>