<svg xmlns="http://www.w3.org/2000/svg" xmlns:xlink="http://www.w3.org/1999/xlink" width="293" height="293" viewBox="0 0 293 293">
  <defs>
    <style>
      .cls-1 {
        fill: #fff;
      }

      .cls-2 {
        clip-path: url(#clip-path);
      }

      .cls-3 {
        fill: none;
      }
    </style>
    <clipPath id="clip-path">
      <rect id="Rectangle_514" data-name="Rectangle 514" class="cls-1" width="267.9" height="135.098"/>
    </clipPath>
  </defs>
  <g id="TPF_icon" data-name="TPF icon" transform="translate(12.55 79.836)">
    <g id="Group_1007" data-name="Group 1007" transform="translate(0 0)">
      <g id="Group_1006" data-name="Group 1006" class="cls-2">
        <path id="Path_8318" data-name="Path 8318" class="cls-1" d="M270.208,97.328c-6.374-29.09-12.207-58.3-18.115-87.5-.569-2.809-1.549-3.808-4.517-3.77-13.682.159-27.363.065-41.045.075-13.831,0-27.671.131-41.5-.093-3.836-.056-3.546,2.137-3.3,4.461.233,2.24-1.559,5.758,3.154,5.628,3.416-.1,6.841-.075,10.257.009,7.784.2,11.386,3.836,11.451,11.507.028,2.641.065,5.282-.028,7.923-.233,6.281-3.938,10.079-10.238,10.369-3.565.168-7.149.065-10.723.028-2.072-.019-3.6.093-4.844,2.473-1.615,3.08-5.889,3.612-7.3.849-2.025-3.985-5.077-3.257-8.2-3.3-2.949-.047-5.917.112-8.857-.112-5.534-.411-9.165-4.078-9.473-9.613A91.711,91.711,0,0,1,126.9,26c.317-5.749,4.069-9.491,9.818-9.818a69.676,69.676,0,0,1,10.257,0c4,.373,4.984-1.232,4.918-5.021-.065-3.481-.373-5.18-4.666-5.142q-40.345.322-80.681.009c-3.6-.019-4.676,1.195-5.338,4.508q-1.176,5.88-2.361,11.75A30.276,30.276,0,1,1,46.708,81.472q-1.512,7.168-3.07,14.316c-2.361,10.835-.663,14.4,9.473,21.027a46.931,46.931,0,0,0,7.877,3.994c17.657,7.28,36.239,10.667,55.128,12.515,37.63,3.686,75.119,3.1,112.217-4.984,12.151-2.641,24.1-6.076,34.6-13.178,6.393-4.321,9.062-9.659,7.28-17.835M60.026,104.141a4.955,4.955,0,0,1-5.385-4.246c-.373-2.557-.653-5.142-.793-7.727a4.909,4.909,0,0,1,4.47-5.189A4.975,4.975,0,0,1,63.8,91.1c.233,1.307.289,2.641.429,3.966.131,1.251.327,2.5.383,3.761a5,5,0,0,1-4.582,5.31m22.94-78.889a4.348,4.348,0,0,1-2.706,1.083,4.881,4.881,0,0,1-4.62-2.352,4.494,4.494,0,0,1,.019-5.329A69.612,69.612,0,0,1,80.95,12.13a4.867,4.867,0,0,1,6.514-.42,4.816,4.816,0,0,1,1.419,6.206,42.1,42.1,0,0,1-5.917,7.336m11,60.952a4.523,4.523,0,0,1-5.338-.019,73.63,73.63,0,0,1-6.514-5.292,4.5,4.5,0,0,1-1.1-5.226,4.838,4.838,0,0,1,3.966-3.229c3.322-.28,10.947,5.926,11.283,8.922a4.759,4.759,0,0,1-2.3,4.844m8.586-33.878a78.01,78.01,0,0,1-7.933.84,4.924,4.924,0,0,1-5.2-4.461,4.977,4.977,0,0,1,4.116-5.488c1.372-.243,2.781-.308,4.181-.448,1.251-.121,2.5-.345,3.761-.364a4.985,4.985,0,0,1,5.1,4.573,4.913,4.913,0,0,1-4.032,5.348" transform="translate(-2.849 -0.401)"/>
        <path id="Path_8319" data-name="Path 8319" class="cls-1" d="M163.24,37.413c-5.434,0-10.879-.2-16.3.076-3.324.171-3.765-1.581-3.258-3.951.475-2.229-2.155-6.148,2.979-6.149q16.767,0,33.532-.006c5.123-.008,2.585,3.871,3.023,6.111.451,2.305.176,4.169-3.216,4-5.574-.283-11.172-.077-16.761-.077" transform="translate(-9.57 -1.827)"/>
        <path id="Path_8320" data-name="Path 8320" class="cls-1" d="M57.546,23.427C53.58,43.175,49.594,62.914,45.4,82.615a30.275,30.275,0,0,1,4.946-59.309,29.855,29.855,0,0,1,7.2.121" transform="translate(-1.545 -1.544)"/>
        <path id="Path_8321" data-name="Path 8321" class="cls-1" d="M45.383,9.112c-.129-1.254-.324-2.506-.376-3.763A5.009,5.009,0,0,1,49.573.021a4.946,4.946,0,0,1,5.394,4.23c.381,2.562.654,5.148.8,7.732a4.92,4.92,0,0,1-4.455,5.2,4.994,4.994,0,0,1-5.528-4.313c-.2-1.243-.273-2.507-.4-3.761" transform="translate(-3.003 0)"/>
        <path id="Path_8322" data-name="Path 8322" class="cls-1" d="M9.173,65.012c-1.323.137-2.645.357-3.972.395A4.99,4.99,0,0,1,.027,60.9a4.93,4.93,0,0,1,4.159-5.447,78.956,78.956,0,0,1,7.94-.812,4.9,4.9,0,0,1,5.05,4.39,4.966,4.966,0,0,1-4.036,5.541c-1.3.246-2.643.294-3.967.431v.007" transform="translate(0 -3.646)"/>
        <path id="Path_8323" data-name="Path 8323" class="cls-1" d="M23.919,99a4.83,4.83,0,0,1-4.787-2.4,4.568,4.568,0,0,1,.112-5.342,75.2,75.2,0,0,1,5.168-6.352,4.826,4.826,0,0,1,6.666-.42,4.764,4.764,0,0,1,1.2,6.405c-1.672,2.406-3.629,4.622-5.537,6.856A4.035,4.035,0,0,1,23.919,99" transform="translate(-1.223 -5.562)"/>
        <path id="Path_8324" data-name="Path 8324" class="cls-1" d="M15.677,18.4a2.71,2.71,0,0,1,.992.037c4.05,1.741,7.574,4.223,9.739,8.122.97,1.746-.079,4.143-1.741,5.4a4.686,4.686,0,0,1-5.688.212,75.932,75.932,0,0,1-6.523-5.288,4.532,4.532,0,0,1-1.1-5.228A4.878,4.878,0,0,1,15.677,18.4" transform="translate(-0.732 -1.226)"/>
      </g>
    </g>
    <rect id="Rectangle_521" data-name="Rectangle 521" class="cls-3" width="293" height="293" transform="translate(-12.55 -79.836)"/>
  </g>
</svg>