<svg xmlns="http://www.w3.org/2000/svg" xmlns:xlink="http://www.w3.org/1999/xlink" width="293" height="293" viewBox="0 0 293 293">
  <defs>
    <style>
      .cls-1 {
        fill: #fff;
      }

      .cls-2 {
        clip-path: url(#clip-path);
      }

      .cls-3 {
        fill: none;
      }
    </style>
    <clipPath id="clip-path">
      <rect id="Rectangle_515" data-name="Rectangle 515" class="cls-1" width="129.417" height="258.513"/>
    </clipPath>
  </defs>
  <g id="Nano_icon" data-name="Nano icon" transform="translate(50.727 38.584) rotate(-15)">
    <g id="Group_1012" data-name="Group 1012" class="cls-2">
      <path id="Path_8325" data-name="Path 8325" class="cls-1" d="M108.544,54.233V49.489c3.775-.6,7.412-1.248,8.7-2.887V8.893C115.132,2.908,96.585.145,64.709,0,32.832.145,14.285,2.908,12.178,8.893V46.6c1.283,1.639,4.92,2.291,8.7,2.887v4.744C8.3,62.319,3.218,71.536,0,81.035v162.7c10.542,13.644,36.332,15.2,64.709,14.7,28.377.5,54.166-1.061,64.709-14.7V81.035c-3.218-9.5-8.3-18.716-20.873-26.8M26.022,42.126c0-2.139,14.906-2.576,38.686-2.474,23.781-.1,38.686.335,38.686,2.474v9.724c-3.049-3.3-21.081-3.165-38.686-2.961-17.605-.2-35.637-.338-38.686,2.961ZM119.929,173.94H95.616a1.793,1.793,0,0,1-1.554-.9L77.122,143.706a1.793,1.793,0,0,1,0-1.794L94.58,111.678h25.349Zm0-65.131H93.5a1,1,0,0,0-.867.5l-19.051,33a.99.99,0,0,0,0,1l19.051,33a1,1,0,0,0,.867.5h26.428v24.151l-8.854-15.332a4.657,4.657,0,0,0-4.036-2.33H86.018a1,1,0,0,0-.867.5L73.584,203.832a.99.99,0,0,0,0,1l11.568,20.037a1,1,0,0,0,.867.5h23.136a1,1,0,0,0,.867-.5l9.908-17.161V223.1c-9.467,11.332-30.8,13.605-55.22,13.52-24.422.085-45.753-2.189-55.22-13.52V100.956c8.3-9.8,30.721-11.1,55.22-11.148,24.5.049,46.923,1.346,55.22,11.148Zm-1.879,96.42L108.075,222.5H87.093L76.6,204.329,87.093,186.16h19.946a1.8,1.8,0,0,1,1.554.9l9.457,16.375a1.81,1.81,0,0,1,0,1.794" transform="translate(0 0)"/>
      <path id="Path_8326" data-name="Path 8326" class="cls-1" d="M32.065.462a.924.924,0,0,0-.8-.462H11.037a.922.922,0,0,0-.8.462L.124,17.979a.923.923,0,0,0,0,.923L10.238,36.421a.923.923,0,0,0,.8.462H31.264a.925.925,0,0,0,.8-.462L42.178,18.9a.923.923,0,0,0,0-.923Z" transform="translate(32.422 102.93)"/>
      <path id="Path_8327" data-name="Path 8327" class="cls-1" d="M44.826,0H16.312a1,1,0,0,0-.865.5L.134,27.023a1,1,0,0,0,0,1L15.448,54.546a1,1,0,0,0,.865.5H46.94a1,1,0,0,0,.865-.5L62.062,29.853a4.661,4.661,0,0,0,0-4.661L48.862,2.33A4.661,4.661,0,0,0,44.826,0M59.58,28.421,45.862,52.18H17.391L3.155,27.523,17.391,2.866H44.826a1.8,1.8,0,0,1,1.554.9l13.2,22.862a1.8,1.8,0,0,1,0,1.8" transform="translate(19.536 145.68)"/>
      <path id="Path_8328" data-name="Path 8328" class="cls-1" d="M14.589.462a.923.923,0,0,0-.8-.462H5.212a.923.923,0,0,0-.8.462L.124,7.89a.921.921,0,0,0,0,.923l4.288,7.428a.923.923,0,0,0,.8.462h8.577a.923.923,0,0,0,.8-.462l4.288-7.428a.923.923,0,0,0,0-.923Z" transform="translate(50.128 208.004)"/>
    </g>
    <rect id="Rectangle_521" data-name="Rectangle 521" class="cls-3" width="293" height="293" transform="matrix(0.966, 0.259, -0.259, 0.966, -39.013, -50.398)"/>
  </g>
</svg>